<svg width="230" height="324" viewBox="0 0 230 324" fill="none" xmlns="http://www.w3.org/2000/svg">
<g clip-path="url(#clip0)">
<path d="M117.3 257.6C179.432 257.6 229.8 207.232 229.8 145.1C229.8 82.9679 179.432 32.6 117.3 32.6C55.168 32.6 4.79999 82.9679 4.79999 145.1C4.79999 207.232 55.168 257.6 117.3 257.6Z" fill="#9FFCDC"/>
<path d="M188.5 268.3C185.5 275.5 185.2 281.2 185.4 285C185.6 288.5 186.2 290.7 185.9 295.4C185.8 297.5 185.5 301.9 183.7 306.1C180.6 313.3 174.1 317.5 173.7 317.1C173.5 316.9 174.8 315.6 176.7 312.1C178 309.7 179.2 307.4 179.7 304.1C180.1 301.4 179.9 299.1 179.7 299.1C179.5 299.1 179.5 303.5 177.7 309.1C177.2 310.6 176.7 312.4 175.7 314.1C172.1 320.6 164.6 324.1 163.7 323.1C163 322.3 167.8 318.9 170.7 311.1C173.1 304.6 172.6 299.3 172.6 299.3C172.5 299.3 171.9 306.6 168.7 315.1C168 316.9 167.3 318.5 165.7 320.1C162.5 323.2 157.5 324.3 156.7 323.1C155.9 321.9 160.1 319.5 163.7 313.1C167.4 306.4 167.9 300.1 167.7 300.1C167.6 300.1 166.4 303.7 163.7 310.1C162.5 313 161.7 314.8 159.7 316.1C158 317.2 155.4 318 154.7 317.1C153.8 316.1 156 313.5 157.7 310.1C161.9 301.6 161.5 291.7 159.7 291.1C158.5 290.7 156.4 294 155.7 295.1C154.4 297.1 154.3 298.1 152.7 301.1C151.3 303.6 150.4 305.2 149.7 305.1C148.5 304.9 148.1 299.9 148.8 295.5C149.7 289.7 152.2 286.4 154.7 282.1C156.9 278.2 159.6 272.5 161.5 264.7C163.1 266.3 166.2 268.9 170.7 270.2C179.5 273 186.9 269.2 188.5 268.3Z" fill="#B385FF"/>
<path d="M79.8 131.2C80.1 124.2 80.5 117.2 80.8 110.2C91.8 108.2 102.8 106.2 113.8 104.2C113.8 112.9 113.8 121.5 113.8 130.2C102.4 130.5 91.1 130.9 79.8 131.2Z" fill="#B385FF"/>
<path d="M99.8 120.2C96.1 121.7 92.4 123.1 87.8 122.2C84.3 121.5 81.8 119.7 80.4 118.5C80.5 111.7 80.7 104.9 80.8 98.2001C85.1 94.9001 89.5 91.5001 93.8 88.2001H100.7C107.9 88.2001 113.7 94.1001 113.7 101.2C113.7 101.5 113.7 101.5 113.7 109.6C113.7 109.7 113.7 110.5 113.7 110.5C108.4 116.2 103 118.9 99.8 120.2Z" fill="#0B1D38"/>
<path d="M134.133 72.3732C138.519 44.4384 124.692 19.0637 103.25 15.6973C81.8075 12.3309 60.8698 32.2475 56.484 60.1823C52.0983 88.1172 65.9252 113.492 87.3674 116.858C108.81 120.225 129.747 100.308 134.133 72.3732Z" fill="#B385FF"/>
<path d="M68.8 122.2C64.1 125.2 61.3 129.9 59.8 133.2C59.2 130.7 57.9 127 54.8 124.2C51.1 120.9 47.5 120.8 46.8 118.2C46.1 115.8 48.5 114.9 49.8 110.2C51.3 104.8 48.6 104.2 49.8 97.2C50.2 95 50.3 93.4 50.3 92.2C50.4 89.6 50.4 88.9001 50.6 88.5001C50.7 88.4001 50.8 88.3 50.8 88.2C52.3 86.5 55.4 87 56.8 87.2C57.7 87.3 58.6 87.6 59 87.7C60.1 88 60.7 88.2 60.8 88.2C62.5 88.8 65.2 89.1 66.8 89.2C70 89.4 72.4 89 76.8 88.2C79.1 87.8 79.2 87.7 81.8 87.2C84.7 86.7 87.2 86.4 88.8 86.2C93.7 85.6 96.9 85.9 98.8 86.2C99.6 86.3 100.6 86.5 100.8 87.2C101.2 88.3 99.3 90.2 97.8 91.2C96.9 91.8 96 92.1 95.8 92.2C92.2 93.5 88.5 94 86.8 94.2C83.5 94.7 78.8 95.4 78.8 96.2C78.8 96.8 80.9 96.7 81.8 98.2C82.6 99.4 82.2 101.1 81.8 102.2C82.1 102.6 82.6 103.2 82.8 104.2C83.2 106.3 82 107.9 81.8 108.2C82.1 108.6 83.5 110.7 82.8 113.2C82.4 114.8 81.3 115.7 80.8 116.2C79.3 117.6 77.7 117.9 76.8 118.2C76.8 118.2 73.6 119.1 68.8 122.2Z" fill="#0B1D38"/>
<path d="M144.799 91.5911C149.687 85.1092 149.682 76.8624 144.788 73.1713C139.893 69.4802 131.963 71.7426 127.074 78.2245C122.186 84.7063 122.191 92.9532 127.086 96.6442C131.98 100.335 139.911 98.073 144.799 91.5911Z" fill="#B385FF"/>
<path d="M81.3 43.2001C82.6807 43.2001 83.8 42.0808 83.8 40.7001C83.8 39.3194 82.6807 38.2001 81.3 38.2001C79.9193 38.2001 78.8 39.3194 78.8 40.7001C78.8 42.0808 79.9193 43.2001 81.3 43.2001Z" fill="#0B1D38"/>
<path d="M108.3 58.2001C109.681 58.2001 110.8 57.0808 110.8 55.7001C110.8 54.3194 109.681 53.2001 108.3 53.2001C106.919 53.2001 105.8 54.3194 105.8 55.7001C105.8 57.0808 106.919 58.2001 108.3 58.2001Z" fill="#0B1D38"/>
<path d="M131.3 95.2001C132.128 95.2001 132.8 94.5285 132.8 93.7001C132.8 92.8716 132.128 92.2001 131.3 92.2001C130.472 92.2001 129.8 92.8716 129.8 93.7001C129.8 94.5285 130.472 95.2001 131.3 95.2001Z" fill="#0FF8A8"/>
<path d="M107.3 45.5001C107.3 44.9001 113.4 43.4001 118.6 46.3001C121.4 47.8001 122.9 50.1001 124 51.7001C127.2 56.5001 127.8 61.8001 127.3 62.0001C126.9 62.2001 125.9 58.2001 121.9 53.6001C120.9 52.4001 119.4 50.8001 117.2 49.3001C111.9 45.7001 107.2 46.1001 107.3 45.5001Z" fill="#0B1D38"/>
<path d="M95.7 40.3C96.2 39.9 94.6 34 89.7 30.8C87 29.1 84.3 28.8 82.4 28.6C76.6 28.1 71.7 30 71.8 30.6C71.9 31.1 75.8 30.1 81.8 31.4C83.3 31.7 85.5 32.2 87.9 33.5C93.3 36.3 95.2 40.6 95.7 40.3Z" fill="#0B1D38"/>
<path d="M96.8 44.2001C96.7 46.8001 96.1 50.8001 93.3 53.7001C88.4 58.8001 80.2 57.2001 79.5 60.1001C79.2 61.2001 79.9 63.1001 85.3 66.7001" stroke="#0C1D37" stroke-miterlimit="10" stroke-linecap="round" stroke-linejoin="round"/>
<path d="M81.3741 85.3323C83.9638 78.6358 83.5577 72.2383 80.467 71.043C77.3763 69.8478 72.7714 74.3074 70.1817 81.0039C67.592 87.7004 67.9981 94.098 71.0888 95.2932C74.1795 96.4885 78.7844 92.0288 81.3741 85.3323Z" fill="#0B1D38"/>
<path d="M119.8 25.2001C118.5 28.9001 117.4 34.3001 118.8 40.2001C121.1 49.5001 127.9 52.2001 130.8 59.2001C133.1 64.8001 133.1 74.0001 122.8 89.2001C142.7 83.8001 157 68.5001 158.8 51.2001C159.7 42.6001 157.8 30.0001 148.8 20.2001C143.5 14.4001 137.4 11.6001 133.8 10.2001C134.5 9.30006 135.8 8.00006 137.8 7.20006C143.2 5.10006 148.4 8.90006 148.8 9.20006C147.4 5.10006 144 2.00006 139.8 1.20006C135.2 0.300059 130.5 2.30006 127.8 6.20006C124 4.10006 117.5 1.00006 108.8 0.200058C103.5 -0.299942 85 -0.999942 71.8 13.2001C59.9 26.0001 60.6 42.1001 60.8 45.2001C63.7 41.3001 72 31.3001 86.8 26.2001C102 20.9001 115.1 23.9001 119.8 25.2001Z" fill="#0FF8A8"/>
<path d="M68.6 121.3C61 126.8 60.2 135 57.4 134.5C55.3 134.1 56.4 129.6 52.3 125.4C48.7 121.6 45 122.2 44.2 119.3C43.5 116.8 45.9 115.9 47.2 111.2C48.7 105.7 46 105.1 47.2 98.0001C47.7 94.8001 48.7 92.7001 48.2 88.9001C48 87.3001 47.9 86.1001 47.2 84.8001C44.6 80.1001 38 80.2001 38.1 78.7001C38.1 77.6001 41.9 76.5001 45.2 76.7001C45.9 76.7001 52.3 77.1001 55.4 81.8001C57 84.3001 56.4 86.0001 58.4 87.9001C60 89.4001 62.1 89.8001 63.5 89.9001C69.2 90.1001 73.7 89.5001 76.7 88.9001C79.8 88.3001 81.7 87.7001 86.9 86.9001C86.9 86.9001 90.6 86.3001 97.1 86.9001C98.6 87.0001 100 87.2001 100.1 87.9001C100.4 89.0001 97.6 90.6001 97.1 90.9001C93.4 93.1001 90.8 92.7001 84.9 93.9001C80.5 94.8001 76.7 96.1001 76.8 96.9001C76.9 97.6001 80 97.3001 80.9 98.9001C81.5 100.1 80.7 101.6 79.9 103C80 103 81.5 103.5 81.9 105C82.2 106.1 81.8 107.3 80.9 108C81.6 109.3 82.3 111.1 81.9 113.1C81 117.4 74.6 116.9 68.6 121.3Z" fill="#B385FF"/>
<path d="M190.8 254.2C190.1 272.8 188.8 276.5 185.8 279.2C179.6 284.7 167.1 285.1 160.8 279.2C153.2 272.1 159.8 261 157.8 233.2C156.5 215.4 152.3 199 150.8 199.2C150 199.3 150.1 204.7 149.8 213.2C149.1 236.1 148.8 247.5 145.8 253.2C133.7 276.2 60.5 272.8 50.8 248.2C47.6 240.1 50.5 227.8 54.8 209.2C57.3 198.5 60.5 189 58.8 188.2C56.8 187.3 52.1 200.7 37.8 209.2C34.2 211.4 28.5 214.6 20.8 214.2C20.2 214.2 11.3 213.6 5.8 208.2C-2.1 200.5 -2.3 183.9 7.8 169.2C18.6 152.4 29.4 135.7 40.2 118.9C41.8 115.4 46 113.7 49.5 115.3L64.9 122.1C65.9 122.7 67.4 123.8 68.5 125.6C72.3 132.3 66.1 142.1 56.8 157.1C37.8 187.9 37.4 189.4 36.8 189.1C34.4 188 39.2 155.5 59.8 139.1C66.6 133.7 73.6 131.2 77.8 130.1C77.8 128.8 77.8 127.4 77.8 126.1C77.9 125.6 78.1 124.8 78.8 124.1C80.1 122.9 82 123 82.8 123.1C97 124.2 104.2 124.8 108.8 124.1C111 123.8 114.9 123 116.8 125.1C117.4 125.8 117.7 126.5 117.8 127.1C117.8 128.8 117.8 130.4 117.8 132.1C130.3 135.2 140.7 138.8 148.8 142.1C160.5 146.8 163.7 149.2 164.8 150.1C173.7 157.1 176.9 166 181.8 180.1C184.6 188.3 189 202.9 190.8 222.1C191.6 231.4 191.3 239 190.8 254.2Z" fill="#5772FF"/>
</g>
<defs>
<clipPath id="clip0">
<rect width="229.8" height="323.7" fill="white"/>
</clipPath>
</defs>
</svg>
