<svg width="98" height="100" viewBox="0 0 98 100" fill="none" xmlns="http://www.w3.org/2000/svg">
<path d="M88.409 49.8422L68.5777 41.3625L77.2569 21.0645C80.5669 13.3234 77.1188 4.42577 69.5557 1.19185C61.9925 -2.04206 53.1775 1.61199 49.8675 9.35307L41.1883 29.6511L21.3552 21.1707C13.7921 17.9367 4.97698 21.5908 1.66623 29.3336C-1.64452 37.0764 1.80431 45.9723 9.36744 49.2063L29.1988 57.686L20.5196 77.984C17.2096 85.725 20.6577 94.6227 28.2208 97.8566C35.7839 101.091 44.599 97.4365 47.909 89.6954L56.5882 69.3974L76.4196 77.8771C83.9827 81.111 92.7978 77.4569 96.1078 69.7159C99.4178 61.9748 95.9722 53.0761 88.409 49.8422Z" fill="#D1B6FF"/>
</svg>
