<?xml version="1.0" encoding="UTF-8"?>
<svg width="913px" height="774px" viewBox="0 0 913 774" version="1.1" xmlns="http://www.w3.org/2000/svg" xmlns:xlink="http://www.w3.org/1999/xlink">
    <!-- Generator: Sketch 51.1 (57501) - http://www.bohemiancoding.com/sketch -->
    <title>X</title>
    <desc>Created with Sketch.</desc>
    <defs>
        <path d="M612.168435,791 L462.895481,600.972744 L326.168057,781.49066 C321.631131,787.480655 314.550623,791 307.036388,791 L5.68434189e-12,791 L299.33687,399.0547 L4.26325641e-14,4.84177431e-13 L299.063406,7.99360578e-13 C306.823449,7.97935081e-13 314.104619,3.75203236 318.608178,10.0715443 L462.895481,212.539249 L617.249643,9.47642606 C621.788082,3.50581849 628.856633,9.0865062e-13 636.356338,8.73967565e-13 L925,5.36511987e-13 L630.899711,402.38568 L925,791 L612.168435,791 Z" id="path-1"></path>
    </defs>
    <g id="Page-1" stroke="none" stroke-width="1" fill="none" fill-rule="evenodd">
        <g id="x-baby" transform="translate(-294.000000, -366.000000)">
            <g id="X" transform="translate(288.000000, 355.000000)">
                <mask id="mask-2" fill="white">
                    <use xlink:href="#path-1"></use>
                </mask>
                <g id="Mask"></g>
                <g id="Group-2" mask="url(#mask-2)" stroke-linecap="square">
                    <g transform="translate(-113.000000, 19.000000)" id="Group">
                        <g>
                            <path d="M0.632944037,758.398439 C51.6471945,758.398439 67.7978422,754.9362 130.318381,754.9362 C196.087901,754.9362 210.663891,758.398439 291.37242,758.398439 C345.930818,758.398439 385.823462,754.9362 437.372119,754.9362 C492.848858,754.9362 528.781381,758.398439 579.091718,758.398439 C633.7154,758.398439 660.994329,754.9362 719.850126,754.9362 C781.424268,754.9362 799.323771,758.398439 856.995041,758.398439 C914.66631,758.398439 938.882267,754.9362 995.773553,754.9362 C1055.05189,754.9362 1087.66681,758.398439 1138.85745,758.398439 C1199.06491,758.398439 1217.20627,754.714753 1268.86316,754.714753" id="Line-2" stroke="#E81515" stroke-width="14.4"></path>
                            <path d="M0.632944037,731.549887 C51.6471945,731.549887 67.7978422,724.182514 130.318381,724.182514 C196.087901,724.182514 210.663891,731.549887 291.37242,731.549887 C345.930818,731.549887 385.823462,724.182514 437.372119,724.182514 C492.848858,724.182514 528.781381,731.549887 579.091718,731.549887 C633.7154,731.549887 660.994329,724.182514 719.850126,724.182514 C781.424268,724.182514 799.323771,731.549887 856.995041,731.549887 C914.66631,731.549887 938.882267,724.182514 995.773553,724.182514 C1055.05189,724.182514 1087.66681,731.549887 1138.85745,731.549887 C1199.06491,731.549887 1217.20627,727.011024 1268.86316,727.011024" id="Line-2" stroke="#E81515" stroke-width="14.4"></path>
                            <path d="M4.39623844,704.701335 C55.4104889,704.701335 71.5611367,693.650275 134.081676,693.650275 C199.851195,693.650275 214.427186,704.701335 295.135715,704.701335 C349.694112,704.701335 389.586757,693.650275 441.135413,693.650275 C496.612152,693.650275 532.544675,704.701335 582.855013,704.701335 C637.478695,704.701335 664.757623,693.650275 723.613421,693.650275 C785.187562,693.650275 803.087065,704.701335 860.758335,704.701335 C918.429605,704.701335 942.645562,693.650275 999.536847,693.650275 C1058.81518,693.650275 1091.43011,704.701335 1142.62075,704.701335 C1202.8282,704.701335 1220.96957,696.63612 1272.62645,696.63612" id="Line-2" stroke="#E81515" stroke-width="14.4"></path>
                            <path d="M4.39623844,677.852783 C55.4104889,677.852783 71.5611367,663.118036 134.081676,663.118036 C199.851195,663.118036 214.427186,677.852783 295.135715,677.852783 C349.694112,677.852783 389.586757,663.118036 441.135413,663.118036 C496.612152,663.118036 532.544675,677.852783 582.855013,677.852783 C637.478695,677.852783 664.757623,663.118036 723.613421,663.118036 C785.187562,663.118036 803.087065,677.852783 860.758335,677.852783 C918.429605,677.852783 942.645562,663.118036 999.536847,663.118036 C1058.81518,663.118036 1091.43011,677.852783 1142.62075,677.852783 C1202.8282,677.852783 1220.96957,666.1893 1272.62645,666.1893" id="Line-2" stroke="#E81515" stroke-width="14.4"></path>
                            <path d="M4.39623844,649.446034 C55.4104889,649.446034 71.5611367,634.711287 134.081676,634.711287 C199.851195,634.711287 214.427186,649.446034 295.135715,649.446034 C349.694112,649.446034 389.586757,634.711287 441.135413,634.711287 C496.612152,634.711287 532.544675,649.446034 582.855013,649.446034 C637.478695,649.446034 664.757623,634.711287 723.613421,634.711287 C785.187562,634.711287 803.087065,649.446034 860.758335,649.446034 C918.429605,649.446034 942.645562,634.711287 999.536847,634.711287 C1058.81518,634.711287 1091.43011,649.446034 1142.62075,649.446034 C1202.8282,649.446034 1220.96957,637.782551 1272.62645,637.782551" id="Line-2" stroke="#E81515" stroke-width="14.4"></path>
                            <path d="M4.39623844,622.597482 C55.4104889,622.597482 71.5611367,604.179048 134.081676,604.179048 C199.851195,604.179048 214.427186,622.597482 295.135715,622.597482 C349.694112,622.597482 389.586757,604.179048 441.135413,604.179048 C496.612152,604.179048 532.544675,622.597482 582.855013,622.597482 C637.478695,622.597482 664.757623,604.179048 723.613421,604.179048 C785.187562,604.179048 803.087065,622.597482 860.758335,622.597482 C918.429605,622.597482 942.645562,604.179048 999.536847,604.179048 C1058.81518,604.179048 1091.43011,622.597482 1142.62075,622.597482 C1202.8282,622.597482 1220.96957,607.30395 1272.62645,607.30395" id="Line-2" stroke="#E81515" stroke-width="14.4"></path>
                            <path d="M4.39623844,594.686185 C55.4104889,594.686185 71.5611367,572.584064 134.081676,572.584064 C199.851195,572.584064 214.427186,594.686185 295.135715,594.686185 C349.694112,594.686185 389.586757,572.584064 441.135413,572.584064 C496.612152,572.584064 532.544675,594.686185 582.855013,594.686185 C637.478695,594.686185 664.757623,572.584064 723.613421,572.584064 C785.187562,572.584064 803.087065,594.686185 860.758335,594.686185 C918.429605,594.686185 942.645562,572.584064 999.536847,572.584064 C1058.81518,572.584064 1091.43011,594.686185 1142.62075,594.686185 C1202.8282,594.686185 1220.96957,575.745778 1272.62645,575.745778" id="Line-2" stroke="#E81515" stroke-width="14.4"></path>
                            <path d="M5.40108258,567.342181 C56.4153331,567.342181 72.5659808,541.556374 135.08652,541.556374 C200.85604,541.556374 215.43203,567.342181 296.140559,567.342181 C350.698956,567.342181 390.591601,541.556374 442.140258,541.556374 C497.616997,541.556374 533.549519,567.342181 583.859857,567.342181 C638.483539,567.342181 665.762468,541.556374 724.618265,541.556374 C786.192406,541.556374 804.091909,567.342181 861.763179,567.342181 C919.434449,567.342181 943.650406,541.556374 1000.54169,541.556374 C1059.82002,541.556374 1092.43495,567.342181 1143.62559,567.342181 C1203.83305,567.342181 1221.97441,544.744917 1273.6313,544.744917" id="Line-2" stroke="#E81515" stroke-width="14.4"></path>
                            <path d="M4.39623844,539.998177 C55.4104889,539.998177 71.5611367,510.528684 134.081676,510.528684 C199.851195,510.528684 214.427186,539.998177 295.135715,539.998177 C349.694112,539.998177 389.586757,510.528684 441.135413,510.528684 C496.612152,510.528684 532.544675,539.998177 582.855013,539.998177 C637.478695,539.998177 664.757623,510.528684 723.613421,510.528684 C785.187562,510.528684 803.087065,539.998177 860.758335,539.998177 C918.429605,539.998177 942.645562,510.528684 999.536847,510.528684 C1058.81518,510.528684 1091.43011,539.998177 1142.62075,539.998177 C1202.8282,539.998177 1220.96957,513.73765 1272.62645,513.73765" id="Line-2" stroke="#E81515" stroke-width="14.4"></path>
                            <path d="M4.39623844,511.024135 C55.4104889,511.024135 71.5611367,477.870954 134.081676,477.870954 C199.851195,477.870954 214.427186,511.024135 295.135715,511.024135 C349.694112,511.024135 389.586757,477.870954 441.135413,477.870954 C496.612152,477.870954 532.544675,511.024135 582.855013,511.024135 C637.478695,511.024135 664.757623,477.870954 723.613421,477.870954 C785.187562,477.870954 803.087065,511.024135 860.758335,511.024135 C918.429605,511.024135 942.645562,477.870954 999.536847,477.870954 C1058.81518,477.870954 1091.43011,511.024135 1142.62075,511.024135 C1202.8282,511.024135 1220.96957,481.095987 1272.62645,481.095987" id="Line-2" stroke="#E81515" stroke-width="14.4"></path>
                            <path d="M4.39623844,481.554641 C55.4104889,481.554641 71.5611367,444.717774 134.081676,444.717774 C199.851195,444.717774 214.427186,481.554641 295.135715,481.554641 C349.694112,481.554641 389.586757,444.717774 441.135413,444.717774 C496.612152,444.717774 532.544675,481.554641 582.855013,481.554641 C637.478695,481.554641 664.757623,444.717774 723.613421,444.717774 C785.187562,444.717774 803.087065,481.554641 860.758335,481.554641 C918.429605,481.554641 942.645562,444.717774 999.536847,444.717774 C1058.81518,444.717774 1091.43011,481.554641 1142.62075,481.554641 C1202.8282,481.554641 1220.96957,447.955776 1272.62645,447.955776" id="Line-2" stroke="#E81515" stroke-width="14.4"></path>
                            <path d="M4.39623844,452.085147 C55.4104889,452.085147 71.5611367,411.564593 134.081676,411.564593 C199.851195,411.564593 214.427186,452.085147 295.135715,452.085147 C349.694112,452.085147 389.586757,411.564593 441.135413,411.564593 C496.612152,411.564593 532.544675,452.085147 582.855013,452.085147 C637.478695,452.085147 664.757623,411.564593 723.613421,411.564593 C785.187562,411.564593 803.087065,452.085147 860.758335,452.085147 C918.429605,452.085147 942.645562,411.564593 999.536847,411.564593 C1058.81518,411.564593 1091.43011,452.085147 1142.62075,452.085147 C1202.8282,452.085147 1220.96957,414.813285 1272.62645,414.813285" id="Line-2" stroke="#E81515" stroke-width="14.4"></path>
                            <path d="M4.39623844,422.615653 C55.4104889,422.615653 71.5611367,378.411413 134.081676,378.411413 C199.851195,378.411413 214.427186,422.615653 295.135715,422.615653 C349.694112,422.615653 389.586757,378.411413 441.135413,378.411413 C496.612152,378.411413 532.544675,422.615653 582.855013,422.615653 C637.478695,422.615653 664.757623,378.411413 723.613421,378.411413 C785.187562,378.411413 803.087065,422.615653 860.758335,422.615653 C918.429605,422.615653 942.645562,378.411413 999.536847,378.411413 C1058.81518,378.411413 1091.43011,422.615653 1142.62075,422.615653 C1202.8282,422.615653 1220.96957,381.669066 1272.62645,381.669066" id="Line-2" stroke="#E81515" stroke-width="14.4"></path>
                            <path d="M4.39623844,393.14616 C55.4104889,393.14616 71.5611367,345.258232 134.081676,345.258232 C199.851195,345.258232 214.427186,393.14616 295.135715,393.14616 C349.694112,393.14616 389.586757,345.258232 441.135413,345.258232 C496.612152,345.258232 532.544675,393.14616 582.855013,393.14616 C637.478695,393.14616 664.757623,345.258232 723.613421,345.258232 C785.187562,345.258232 803.087065,393.14616 860.758335,393.14616 C918.429605,393.14616 942.645562,345.258232 999.536847,345.258232 C1058.81518,345.258232 1091.43011,393.14616 1142.62075,393.14616 C1202.8282,393.14616 1220.96957,348.523507 1272.62645,348.523507" id="Line-2" stroke="#E81515" stroke-width="14.4"></path>
                            <path d="M4.39623844,363.141741 C55.4104889,363.141741 71.5611367,311.570127 134.081676,311.570127 C199.851195,311.570127 214.427186,363.141741 295.135715,363.141741 C349.694112,363.141741 389.586757,311.570127 441.135413,311.570127 C496.612152,311.570127 532.544675,363.141741 582.855013,363.141741 C637.478695,363.141741 664.757623,311.570127 723.613421,311.570127 C785.187562,311.570127 803.087065,363.141741 860.758335,363.141741 C918.429605,363.141741 942.645562,311.570127 999.536847,311.570127 C1058.81518,311.570127 1091.43011,363.141741 1142.62075,363.141741 C1202.8282,363.141741 1220.96957,314.841963 1272.62645,314.841963" id="Line-2" stroke="#E81515" stroke-width="14.4"></path>
                            <path d="M4.39623844,331.523485 C55.4104889,331.523485 71.5611367,276.268184 134.081676,276.268184 C199.851195,276.268184 214.427186,331.523485 295.135715,331.523485 C349.694112,331.523485 389.586757,276.268184 441.135413,276.268184 C496.612152,276.268184 532.544675,331.523485 582.855013,331.523485 C637.478695,331.523485 664.757623,276.268184 723.613421,276.268184 C785.187562,276.268184 803.087065,331.523485 860.758335,331.523485 C918.429605,331.523485 942.645562,276.268184 999.536847,276.268184 C1058.81518,276.268184 1091.43011,331.523485 1142.62075,331.523485 C1202.8282,331.523485 1220.96957,279.545728 1272.62645,279.545728" id="Line-2" stroke="#E81515" stroke-width="14.4"></path>
                            <path d="M4.39623844,301.082658 C55.4104889,301.082658 71.5611367,242.143671 134.081676,242.143671 C199.851195,242.143671 214.427186,301.082658 295.135715,301.082658 C349.694112,301.082658 389.586757,242.143671 441.135413,242.143671 C496.612152,242.143671 532.544675,301.082658 582.855013,301.082658 C637.478695,301.082658 664.757623,242.143671 723.613421,242.143671 C785.187562,242.143671 803.087065,301.082658 860.758335,301.082658 C918.429605,301.082658 942.645562,242.143671 999.536847,242.143671 C1058.81518,242.143671 1091.43011,301.082658 1142.62075,301.082658 C1202.8282,301.082658 1220.96957,245.426225 1272.62645,245.426225" id="Line-2" stroke="#E81515" stroke-width="14.4"></path>
                            <path d="M8.15953284,270.157522 C59.1737833,270.157522 75.3244311,207.534848 137.84497,207.534848 C203.61449,207.534848 218.19048,270.157522 298.899009,270.157522 C353.457406,270.157522 393.350051,207.534848 444.898708,207.534848 C500.375447,207.534848 536.307969,270.157522 586.618307,270.157522 C641.241989,270.157522 668.520918,207.534848 727.376715,207.534848 C788.950856,207.534848 806.850359,270.157522 864.521629,270.157522 C922.192899,270.157522 946.408856,207.534848 1003.30014,207.534848 C1062.57847,207.534848 1095.1934,270.157522 1146.38404,270.157522 C1206.5915,270.157522 1224.73286,210.855278 1276.38975,210.855278" id="Line-2" stroke="#E81515" stroke-width="14.4"></path>
                            <path d="M8.15953284,238.489097 C59.1737833,238.489097 75.3244311,172.182736 137.84497,172.182736 C203.61449,172.182736 218.19048,238.489097 298.899009,238.489097 C353.457406,238.489097 393.350051,172.182736 444.898708,172.182736 C500.375447,172.182736 536.307969,238.489097 586.618307,238.489097 C641.241989,238.489097 668.520918,172.182736 727.376715,172.182736 C788.950856,172.182736 806.850359,238.489097 864.521629,238.489097 C922.192899,238.489097 946.408856,172.182736 1003.30014,172.182736 C1062.57847,172.182736 1095.1934,238.489097 1146.38404,238.489097 C1206.5915,238.489097 1224.73286,175.537576 1276.38975,175.537576" id="Line-2" stroke="#E81515" stroke-width="14.4"></path>
                            <path d="M8.15953284,206.534848 C59.1737833,206.534848 75.3244311,136.5448 137.84497,136.5448 C203.61449,136.5448 218.19048,206.534848 298.899009,206.534848 C353.457406,206.534848 393.350051,136.5448 444.898708,136.5448 C500.375447,136.5448 536.307969,206.534848 586.618307,206.534848 C641.241989,206.534848 668.520918,136.5448 727.376715,136.5448 C788.950856,136.5448 806.850359,206.534848 864.521629,206.534848 C922.192899,206.534848 943.537771,136.5448 1000.42906,136.5448 C1059.70739,136.5448 1092.32232,206.534848 1143.51296,206.534848 C1203.72041,206.534848 1221.86178,139.931037 1273.51866,139.931037" id="Line-2" stroke="#E81515" stroke-width="14.4"></path>
                            <path d="M8.15953284,173.159034 C59.1737833,173.159034 75.3244311,103.168986 137.84497,103.168986 C203.61449,103.168986 218.19048,173.159034 298.899009,173.159034 C353.457406,173.159034 393.350051,103.168986 444.898708,103.168986 C500.375447,103.168986 536.307969,173.159034 586.618307,173.159034 C641.241989,173.159034 668.520918,103.168986 727.376715,103.168986 C788.950856,103.168986 806.850359,173.159034 864.521629,173.159034 C922.192899,173.159034 943.537771,103.168986 1000.42906,103.168986 C1059.70739,103.168986 1092.32232,173.159034 1143.51296,173.159034 C1203.72041,173.159034 1221.86178,106.555224 1273.51866,106.555224" id="Line-2" stroke="#E81515" stroke-width="14.4"></path>
                            <path d="M8.15953284,141.592717 C59.1737833,141.592717 75.3244311,67.9189825 137.84497,67.9189825 C203.61449,67.9189825 218.19048,141.592717 298.899009,141.592717 C353.457406,141.592717 393.350051,67.9189825 444.898708,67.9189825 C500.375447,67.9189825 536.307969,141.592717 586.618307,141.592717 C641.241989,141.592717 668.520918,67.9189825 727.376715,67.9189825 C788.950856,67.9189825 806.850359,141.592717 864.521629,141.592717 C922.192899,141.592717 943.537771,67.9189825 1000.42906,67.9189825 C1059.70739,67.9189825 1092.32232,141.592717 1143.51296,141.592717 C1203.72041,141.592717 1221.86178,71.3339839 1273.51866,71.3339839" id="Line-2" stroke="#E81515" stroke-width="14.4"></path>
                            <path d="M8.15953284,106.429919 C59.1737833,106.429919 75.3244311,35.7210276 137.84497,35.7210276 C203.61449,35.7210276 218.19048,109.394762 298.899009,109.394762 C353.457406,109.394762 393.350051,35.7210276 444.898708,35.7210276 C500.375447,35.7210276 536.307969,109.394762 586.618307,109.394762 C641.241989,109.394762 668.520918,35.7210276 727.376715,35.7210276 C788.950856,35.7210276 806.850359,109.394762 864.521629,109.394762 C922.192899,109.394762 943.537771,35.7210276 1000.42906,35.7210276 C1059.70739,35.7210276 1092.32232,109.394762 1143.51296,109.394762 C1203.72041,109.394762 1221.86178,38.9985995 1273.51866,38.9985995" id="Line-2" stroke="#E81515" stroke-width="14.4"></path>
                            <path d="M8.15953284,74.4769739 C59.1737833,74.4769739 75.3244311,0.112204648 137.84497,0.112204648 C203.61449,0.112204648 218.19048,77.4696259 298.899009,77.4696259 C353.457406,77.4696259 393.350051,0.112204648 444.898708,0.112204648 C500.375447,0.112204648 536.307969,77.4696259 586.618307,77.4696259 C641.241989,77.4696259 668.520918,0.112204648 727.376715,0.112204648 C788.950856,0.112204648 806.850359,77.4696259 864.521629,77.4696259 C922.192899,77.4696259 943.537771,0.112204648 1000.42906,0.112204648 C1059.70739,0.112204648 1092.32232,77.4696259 1143.51296,77.4696259 C1203.72041,77.4696259 1221.86178,3.42051908 1273.51866,3.42051908" id="Line-2" stroke="#E81515" stroke-width="14.4"></path>
                        </g>
                    </g>
                </g>
            </g>
        </g>
    </g>
</svg>