<?xml version="1.0" encoding="UTF-8"?>
<svg width="1599px" height="1130px" viewBox="0 0 1599 1130" version="1.1" xmlns="http://www.w3.org/2000/svg" xmlns:xlink="http://www.w3.org/1999/xlink">
    <!-- Generator: Sketch 51.1 (57501) - http://www.bohemiancoding.com/sketch -->
    <title>Group 6</title>
    <desc>Created with Sketch.</desc>
    <defs>
        <rect id="path-1" x="0" y="0" width="1599" height="301"></rect>
        <rect id="path-3" x="0" y="0" width="1599" height="301"></rect>
        <rect id="path-5" x="0" y="0" width="1599" height="301"></rect>
        <rect id="path-7" x="0" y="0" width="1599" height="301"></rect>
        <rect id="path-9" x="0" y="0" width="1599" height="301"></rect>
        <rect id="path-11" x="0" y="0" width="1599" height="301"></rect>
    </defs>
    <g id="Hero/Landing" stroke="none" stroke-width="1" fill="none" fill-rule="evenodd">
        <g id="Group-6" transform="translate(0.000000, -25.000000)">
            <g id="Group-5">
                <g id="thin-guy">
                    <mask id="mask-2" fill="white">
                        <use xlink:href="#path-1"></use>
                    </mask>
                    <g id="path-1"></g>
                    <g id="Group-2" mask="url(#mask-2)">
                        <g transform="translate(-226.000000, 30.000000)" id="Group">
                            <g>
                                <g id="Line-2" stroke="#7CD2FF" stroke-width="9.18">
                                    <g>
                                        <g id="Group">
                                            <path d="M0.59937415,233.277712 C185.159535,233.277712 243.589601,136.107926 469.777395,136.107926 C707.719397,136.107926 760.452647,237.015561 1052.44123,237.015561 C1249.82347,237.015561 1394.1477,136.107926 1580.64124,136.107926 C1781.34587,136.107926 1911.34311,237.015561 2093.35664,237.015561 C2290.97506,237.015561 2389.6652,136.107926 2602.59463,136.107926 C2825.35853,136.107926 2890.11563,237.015561 3098.75966,237.015561 C3307.40369,237.015561 3395.01257,136.107926 3600.83476,136.107926 C3815.29284,136.107926 3933.28763,237.015561 4118.48595,237.015561 C4336.30542,237.015561 4401.93755,140.24004 4588.82262,140.24004" id="Shape"></path>
                                            <path d="M0.59937415,147.648668 C185.159535,147.648668 243.589601,45.9028011 469.777395,45.9028011 C707.719397,45.9028011 760.452647,151.397147 1052.44123,151.397147 C1249.82347,151.397147 1394.1477,45.9028011 1580.64124,45.9028011 C1781.34587,45.9028011 1911.34311,151.397147 2093.35664,151.397147 C2290.97506,151.397147 2389.6652,45.9028011 2602.59463,45.9028011 C2825.35853,45.9028011 2890.11563,151.397147 3098.75966,151.397147 C3307.40369,151.397147 3395.01257,45.9028011 3600.83476,45.9028011 C3815.29284,45.9028011 3933.28763,151.397147 4118.48595,151.397147 C4336.30542,151.397147 4401.93755,50.0466669 4588.82262,50.0466669" id="Shape"></path>
                                            <path d="M0.59937415,191.986686 C185.159535,191.986686 243.589601,90.2408192 469.777395,90.2408192 C707.719397,90.2408192 760.452647,195.735165 1052.44123,195.735165 C1249.82347,195.735165 1394.1477,90.2408192 1580.64124,90.2408192 C1781.34587,90.2408192 1911.34311,195.735165 2093.35664,195.735165 C2290.97506,195.735165 2389.6652,90.2408192 2602.59463,90.2408192 C2825.35853,90.2408192 2890.11563,195.735165 3098.75966,195.735165 C3307.40369,195.735165 3395.01257,90.2408192 3600.83476,90.2408192 C3815.29284,90.2408192 3933.28763,195.735165 4118.48595,195.735165 C4336.30542,195.735165 4401.93755,94.384685 4588.82262,94.384685" id="Shape"></path>
                                            <path d="M4.2645352,106.322779 C188.824695,106.322779 247.254761,0 473.442555,0 C711.384561,0 764.117807,110.081056 1056.10639,110.081056 C1253.48863,110.081056 1397.81287,0 1584.3064,0 C1785.01103,0 1915.00827,110.081056 2097.02181,110.081056 C2294.64022,110.081056 2393.33036,0 2606.25979,0 C2829.02369,0 2893.7808,110.081056 3102.42484,110.081056 C3311.06887,110.081056 3398.67771,0 3604.49991,0 C3818.95802,0 3936.95281,110.081056 4122.1511,110.081056 C4339.9706,110.081056 4405.6027,4.15469723 4592.4878,4.15469723" id="Shape"></path>
                                        </g>
                                    </g>
                                </g>
                            </g>
                        </g>
                    </g>
                </g>
                <g id="thin-guy" transform="translate(0.000000, 178.000000)">
                    <mask id="mask-4" fill="white">
                        <use xlink:href="#path-3"></use>
                    </mask>
                    <g id="path-1"></g>
                    <g id="Group-2" mask="url(#mask-4)">
                        <g transform="translate(-226.000000, 30.000000)" id="Group">
                            <g>
                                <g id="Line-2" stroke="#7CD2FF" stroke-width="9.18">
                                    <g>
                                        <g id="Group">
                                            <path d="M0.59937415,233.277712 C185.159535,233.277712 243.589601,136.107926 469.777395,136.107926 C707.719397,136.107926 760.452647,237.015561 1052.44123,237.015561 C1249.82347,237.015561 1394.1477,136.107926 1580.64124,136.107926 C1781.34587,136.107926 1911.34311,237.015561 2093.35664,237.015561 C2290.97506,237.015561 2389.6652,136.107926 2602.59463,136.107926 C2825.35853,136.107926 2890.11563,237.015561 3098.75966,237.015561 C3307.40369,237.015561 3395.01257,136.107926 3600.83476,136.107926 C3815.29284,136.107926 3933.28763,237.015561 4118.48595,237.015561 C4336.30542,237.015561 4401.93755,140.24004 4588.82262,140.24004" id="Shape"></path>
                                            <path d="M0.59937415,147.648668 C185.159535,147.648668 243.589601,45.9028011 469.777395,45.9028011 C707.719397,45.9028011 760.452647,151.397147 1052.44123,151.397147 C1249.82347,151.397147 1394.1477,45.9028011 1580.64124,45.9028011 C1781.34587,45.9028011 1911.34311,151.397147 2093.35664,151.397147 C2290.97506,151.397147 2389.6652,45.9028011 2602.59463,45.9028011 C2825.35853,45.9028011 2890.11563,151.397147 3098.75966,151.397147 C3307.40369,151.397147 3395.01257,45.9028011 3600.83476,45.9028011 C3815.29284,45.9028011 3933.28763,151.397147 4118.48595,151.397147 C4336.30542,151.397147 4401.93755,50.0466669 4588.82262,50.0466669" id="Shape"></path>
                                            <path d="M0.59937415,191.986686 C185.159535,191.986686 243.589601,90.2408192 469.777395,90.2408192 C707.719397,90.2408192 760.452647,195.735165 1052.44123,195.735165 C1249.82347,195.735165 1394.1477,90.2408192 1580.64124,90.2408192 C1781.34587,90.2408192 1911.34311,195.735165 2093.35664,195.735165 C2290.97506,195.735165 2389.6652,90.2408192 2602.59463,90.2408192 C2825.35853,90.2408192 2890.11563,195.735165 3098.75966,195.735165 C3307.40369,195.735165 3395.01257,90.2408192 3600.83476,90.2408192 C3815.29284,90.2408192 3933.28763,195.735165 4118.48595,195.735165 C4336.30542,195.735165 4401.93755,94.384685 4588.82262,94.384685" id="Shape"></path>
                                            <path d="M4.2645352,106.322779 C188.824695,106.322779 247.254761,0 473.442555,0 C711.384561,0 764.117807,110.081056 1056.10639,110.081056 C1253.48863,110.081056 1397.81287,0 1584.3064,0 C1785.01103,0 1915.00827,110.081056 2097.02181,110.081056 C2294.64022,110.081056 2393.33036,0 2606.25979,0 C2829.02369,0 2893.7808,110.081056 3102.42484,110.081056 C3311.06887,110.081056 3398.67771,0 3604.49991,0 C3818.95802,0 3936.95281,110.081056 4122.1511,110.081056 C4339.9706,110.081056 4405.6027,4.15469723 4592.4878,4.15469723" id="Shape"></path>
                                        </g>
                                    </g>
                                </g>
                            </g>
                        </g>
                    </g>
                </g>
                <g id="thin-guy" transform="translate(0.000000, 353.000000)">
                    <mask id="mask-6" fill="white">
                        <use xlink:href="#path-5"></use>
                    </mask>
                    <g id="path-1"></g>
                    <g id="Group-2" mask="url(#mask-6)">
                        <g transform="translate(-226.000000, 30.000000)" id="Group">
                            <g>
                                <g id="Line-2" stroke="#7CD2FF" stroke-width="9.18">
                                    <g>
                                        <g id="Group">
                                            <path d="M0.59937415,233.277712 C185.159535,233.277712 243.589601,136.107926 469.777395,136.107926 C707.719397,136.107926 760.452647,237.015561 1052.44123,237.015561 C1249.82347,237.015561 1394.1477,136.107926 1580.64124,136.107926 C1781.34587,136.107926 1911.34311,237.015561 2093.35664,237.015561 C2290.97506,237.015561 2389.6652,136.107926 2602.59463,136.107926 C2825.35853,136.107926 2890.11563,237.015561 3098.75966,237.015561 C3307.40369,237.015561 3395.01257,136.107926 3600.83476,136.107926 C3815.29284,136.107926 3933.28763,237.015561 4118.48595,237.015561 C4336.30542,237.015561 4401.93755,140.24004 4588.82262,140.24004" id="Shape"></path>
                                            <path d="M0.59937415,147.648668 C185.159535,147.648668 243.589601,45.9028011 469.777395,45.9028011 C707.719397,45.9028011 760.452647,151.397147 1052.44123,151.397147 C1249.82347,151.397147 1394.1477,45.9028011 1580.64124,45.9028011 C1781.34587,45.9028011 1911.34311,151.397147 2093.35664,151.397147 C2290.97506,151.397147 2389.6652,45.9028011 2602.59463,45.9028011 C2825.35853,45.9028011 2890.11563,151.397147 3098.75966,151.397147 C3307.40369,151.397147 3395.01257,45.9028011 3600.83476,45.9028011 C3815.29284,45.9028011 3933.28763,151.397147 4118.48595,151.397147 C4336.30542,151.397147 4401.93755,50.0466669 4588.82262,50.0466669" id="Shape"></path>
                                            <path d="M0.59937415,191.986686 C185.159535,191.986686 243.589601,90.2408192 469.777395,90.2408192 C707.719397,90.2408192 760.452647,195.735165 1052.44123,195.735165 C1249.82347,195.735165 1394.1477,90.2408192 1580.64124,90.2408192 C1781.34587,90.2408192 1911.34311,195.735165 2093.35664,195.735165 C2290.97506,195.735165 2389.6652,90.2408192 2602.59463,90.2408192 C2825.35853,90.2408192 2890.11563,195.735165 3098.75966,195.735165 C3307.40369,195.735165 3395.01257,90.2408192 3600.83476,90.2408192 C3815.29284,90.2408192 3933.28763,195.735165 4118.48595,195.735165 C4336.30542,195.735165 4401.93755,94.384685 4588.82262,94.384685" id="Shape"></path>
                                            <path d="M4.2645352,106.322779 C188.824695,106.322779 247.254761,0 473.442555,0 C711.384561,0 764.117807,110.081056 1056.10639,110.081056 C1253.48863,110.081056 1397.81287,0 1584.3064,0 C1785.01103,0 1915.00827,110.081056 2097.02181,110.081056 C2294.64022,110.081056 2393.33036,0 2606.25979,0 C2829.02369,0 2893.7808,110.081056 3102.42484,110.081056 C3311.06887,110.081056 3398.67771,0 3604.49991,0 C3818.95802,0 3936.95281,110.081056 4122.1511,110.081056 C4339.9706,110.081056 4405.6027,4.15469723 4592.4878,4.15469723" id="Shape"></path>
                                        </g>
                                    </g>
                                </g>
                            </g>
                        </g>
                    </g>
                </g>
            </g>
            <g id="Group-5" transform="translate(0.000000, 530.000000)">
                <g id="thin-guy">
                    <mask id="mask-8" fill="white">
                        <use xlink:href="#path-7"></use>
                    </mask>
                    <g id="path-1"></g>
                    <g id="Group-2" mask="url(#mask-8)">
                        <g transform="translate(-226.000000, 30.000000)" id="Group">
                            <g>
                                <g id="Line-2" stroke="#7CD2FF" stroke-width="9.18">
                                    <g>
                                        <g id="Group">
                                            <path d="M0.59937415,233.277712 C185.159535,233.277712 243.589601,136.107926 469.777395,136.107926 C707.719397,136.107926 760.452647,237.015561 1052.44123,237.015561 C1249.82347,237.015561 1394.1477,136.107926 1580.64124,136.107926 C1781.34587,136.107926 1911.34311,237.015561 2093.35664,237.015561 C2290.97506,237.015561 2389.6652,136.107926 2602.59463,136.107926 C2825.35853,136.107926 2890.11563,237.015561 3098.75966,237.015561 C3307.40369,237.015561 3395.01257,136.107926 3600.83476,136.107926 C3815.29284,136.107926 3933.28763,237.015561 4118.48595,237.015561 C4336.30542,237.015561 4401.93755,140.24004 4588.82262,140.24004" id="Shape"></path>
                                            <path d="M0.59937415,147.648668 C185.159535,147.648668 243.589601,45.9028011 469.777395,45.9028011 C707.719397,45.9028011 760.452647,151.397147 1052.44123,151.397147 C1249.82347,151.397147 1394.1477,45.9028011 1580.64124,45.9028011 C1781.34587,45.9028011 1911.34311,151.397147 2093.35664,151.397147 C2290.97506,151.397147 2389.6652,45.9028011 2602.59463,45.9028011 C2825.35853,45.9028011 2890.11563,151.397147 3098.75966,151.397147 C3307.40369,151.397147 3395.01257,45.9028011 3600.83476,45.9028011 C3815.29284,45.9028011 3933.28763,151.397147 4118.48595,151.397147 C4336.30542,151.397147 4401.93755,50.0466669 4588.82262,50.0466669" id="Shape"></path>
                                            <path d="M0.59937415,191.986686 C185.159535,191.986686 243.589601,90.2408192 469.777395,90.2408192 C707.719397,90.2408192 760.452647,195.735165 1052.44123,195.735165 C1249.82347,195.735165 1394.1477,90.2408192 1580.64124,90.2408192 C1781.34587,90.2408192 1911.34311,195.735165 2093.35664,195.735165 C2290.97506,195.735165 2389.6652,90.2408192 2602.59463,90.2408192 C2825.35853,90.2408192 2890.11563,195.735165 3098.75966,195.735165 C3307.40369,195.735165 3395.01257,90.2408192 3600.83476,90.2408192 C3815.29284,90.2408192 3933.28763,195.735165 4118.48595,195.735165 C4336.30542,195.735165 4401.93755,94.384685 4588.82262,94.384685" id="Shape"></path>
                                            <path d="M4.2645352,106.322779 C188.824695,106.322779 247.254761,0 473.442555,0 C711.384561,0 764.117807,110.081056 1056.10639,110.081056 C1253.48863,110.081056 1397.81287,0 1584.3064,0 C1785.01103,0 1915.00827,110.081056 2097.02181,110.081056 C2294.64022,110.081056 2393.33036,0 2606.25979,0 C2829.02369,0 2893.7808,110.081056 3102.42484,110.081056 C3311.06887,110.081056 3398.67771,0 3604.49991,0 C3818.95802,0 3936.95281,110.081056 4122.1511,110.081056 C4339.9706,110.081056 4405.6027,4.15469723 4592.4878,4.15469723" id="Shape"></path>
                                        </g>
                                    </g>
                                </g>
                            </g>
                        </g>
                    </g>
                </g>
                <g id="thin-guy" transform="translate(0.000000, 178.000000)">
                    <mask id="mask-10" fill="white">
                        <use xlink:href="#path-9"></use>
                    </mask>
                    <g id="path-1"></g>
                    <g id="Group-2" mask="url(#mask-10)">
                        <g transform="translate(-226.000000, 30.000000)" id="Group">
                            <g>
                                <g id="Line-2" stroke="#7CD2FF" stroke-width="9.18">
                                    <g>
                                        <g id="Group">
                                            <path d="M0.59937415,233.277712 C185.159535,233.277712 243.589601,136.107926 469.777395,136.107926 C707.719397,136.107926 760.452647,237.015561 1052.44123,237.015561 C1249.82347,237.015561 1394.1477,136.107926 1580.64124,136.107926 C1781.34587,136.107926 1911.34311,237.015561 2093.35664,237.015561 C2290.97506,237.015561 2389.6652,136.107926 2602.59463,136.107926 C2825.35853,136.107926 2890.11563,237.015561 3098.75966,237.015561 C3307.40369,237.015561 3395.01257,136.107926 3600.83476,136.107926 C3815.29284,136.107926 3933.28763,237.015561 4118.48595,237.015561 C4336.30542,237.015561 4401.93755,140.24004 4588.82262,140.24004" id="Shape"></path>
                                            <path d="M0.59937415,147.648668 C185.159535,147.648668 243.589601,45.9028011 469.777395,45.9028011 C707.719397,45.9028011 760.452647,151.397147 1052.44123,151.397147 C1249.82347,151.397147 1394.1477,45.9028011 1580.64124,45.9028011 C1781.34587,45.9028011 1911.34311,151.397147 2093.35664,151.397147 C2290.97506,151.397147 2389.6652,45.9028011 2602.59463,45.9028011 C2825.35853,45.9028011 2890.11563,151.397147 3098.75966,151.397147 C3307.40369,151.397147 3395.01257,45.9028011 3600.83476,45.9028011 C3815.29284,45.9028011 3933.28763,151.397147 4118.48595,151.397147 C4336.30542,151.397147 4401.93755,50.0466669 4588.82262,50.0466669" id="Shape"></path>
                                            <path d="M0.59937415,191.986686 C185.159535,191.986686 243.589601,90.2408192 469.777395,90.2408192 C707.719397,90.2408192 760.452647,195.735165 1052.44123,195.735165 C1249.82347,195.735165 1394.1477,90.2408192 1580.64124,90.2408192 C1781.34587,90.2408192 1911.34311,195.735165 2093.35664,195.735165 C2290.97506,195.735165 2389.6652,90.2408192 2602.59463,90.2408192 C2825.35853,90.2408192 2890.11563,195.735165 3098.75966,195.735165 C3307.40369,195.735165 3395.01257,90.2408192 3600.83476,90.2408192 C3815.29284,90.2408192 3933.28763,195.735165 4118.48595,195.735165 C4336.30542,195.735165 4401.93755,94.384685 4588.82262,94.384685" id="Shape"></path>
                                            <path d="M4.2645352,106.322779 C188.824695,106.322779 247.254761,0 473.442555,0 C711.384561,0 764.117807,110.081056 1056.10639,110.081056 C1253.48863,110.081056 1397.81287,0 1584.3064,0 C1785.01103,0 1915.00827,110.081056 2097.02181,110.081056 C2294.64022,110.081056 2393.33036,0 2606.25979,0 C2829.02369,0 2893.7808,110.081056 3102.42484,110.081056 C3311.06887,110.081056 3398.67771,0 3604.49991,0 C3818.95802,0 3936.95281,110.081056 4122.1511,110.081056 C4339.9706,110.081056 4405.6027,4.15469723 4592.4878,4.15469723" id="Shape"></path>
                                        </g>
                                    </g>
                                </g>
                            </g>
                        </g>
                    </g>
                </g>
                <g id="thin-guy" transform="translate(0.000000, 353.000000)">
                    <mask id="mask-12" fill="white">
                        <use xlink:href="#path-11"></use>
                    </mask>
                    <g id="path-1"></g>
                    <g id="Group-2" mask="url(#mask-12)">
                        <g transform="translate(-226.000000, 30.000000)" id="Group">
                            <g>
                                <g id="Line-2" stroke="#7CD2FF" stroke-width="9.18">
                                    <g>
                                        <g id="Group">
                                            <path d="M0.59937415,233.277712 C185.159535,233.277712 243.589601,136.107926 469.777395,136.107926 C707.719397,136.107926 760.452647,237.015561 1052.44123,237.015561 C1249.82347,237.015561 1394.1477,136.107926 1580.64124,136.107926 C1781.34587,136.107926 1911.34311,237.015561 2093.35664,237.015561 C2290.97506,237.015561 2389.6652,136.107926 2602.59463,136.107926 C2825.35853,136.107926 2890.11563,237.015561 3098.75966,237.015561 C3307.40369,237.015561 3395.01257,136.107926 3600.83476,136.107926 C3815.29284,136.107926 3933.28763,237.015561 4118.48595,237.015561 C4336.30542,237.015561 4401.93755,140.24004 4588.82262,140.24004" id="Shape"></path>
                                            <path d="M0.59937415,147.648668 C185.159535,147.648668 243.589601,45.9028011 469.777395,45.9028011 C707.719397,45.9028011 760.452647,151.397147 1052.44123,151.397147 C1249.82347,151.397147 1394.1477,45.9028011 1580.64124,45.9028011 C1781.34587,45.9028011 1911.34311,151.397147 2093.35664,151.397147 C2290.97506,151.397147 2389.6652,45.9028011 2602.59463,45.9028011 C2825.35853,45.9028011 2890.11563,151.397147 3098.75966,151.397147 C3307.40369,151.397147 3395.01257,45.9028011 3600.83476,45.9028011 C3815.29284,45.9028011 3933.28763,151.397147 4118.48595,151.397147 C4336.30542,151.397147 4401.93755,50.0466669 4588.82262,50.0466669" id="Shape"></path>
                                            <path d="M0.59937415,191.986686 C185.159535,191.986686 243.589601,90.2408192 469.777395,90.2408192 C707.719397,90.2408192 760.452647,195.735165 1052.44123,195.735165 C1249.82347,195.735165 1394.1477,90.2408192 1580.64124,90.2408192 C1781.34587,90.2408192 1911.34311,195.735165 2093.35664,195.735165 C2290.97506,195.735165 2389.6652,90.2408192 2602.59463,90.2408192 C2825.35853,90.2408192 2890.11563,195.735165 3098.75966,195.735165 C3307.40369,195.735165 3395.01257,90.2408192 3600.83476,90.2408192 C3815.29284,90.2408192 3933.28763,195.735165 4118.48595,195.735165 C4336.30542,195.735165 4401.93755,94.384685 4588.82262,94.384685" id="Shape"></path>
                                            <path d="M4.2645352,106.322779 C188.824695,106.322779 247.254761,0 473.442555,0 C711.384561,0 764.117807,110.081056 1056.10639,110.081056 C1253.48863,110.081056 1397.81287,0 1584.3064,0 C1785.01103,0 1915.00827,110.081056 2097.02181,110.081056 C2294.64022,110.081056 2393.33036,0 2606.25979,0 C2829.02369,0 2893.7808,110.081056 3102.42484,110.081056 C3311.06887,110.081056 3398.67771,0 3604.49991,0 C3818.95802,0 3936.95281,110.081056 4122.1511,110.081056 C4339.9706,110.081056 4405.6027,4.15469723 4592.4878,4.15469723" id="Shape"></path>
                                        </g>
                                    </g>
                                </g>
                            </g>
                        </g>
                    </g>
                </g>
            </g>
        </g>
    </g>
</svg>